<svg fill="none" height="100%" width="100%" viewBox="0 0 500 500" xmlns:xlink="http://www.w3.org/1999/xlink" xmlns="http://www.w3.org/2000/svg"><defs><linearGradient id="i0" gradientUnits="userSpaceOnUse" spreadMethod="pad" x2="62.349" y2="25.98" x1="127" y1="-86"><stop offset="0%" stop-color="#0da9ec" /><stop offset="65.2%" stop-color="#2190d6" /><stop offset="100%" stop-color="#3676c1" /></linearGradient><linearGradient id="i1" gradientUnits="userSpaceOnUse" spreadMethod="pad" x2="82" y2="-5.919" x1="82" y1="105"><stop offset="0%" stop-color="#0da9ec" /><stop offset="77.9%" stop-color="#2190d6" /><stop offset="100%" stop-color="#3676c1" /></linearGradient><linearGradient id="i2" gradientUnits="userSpaceOnUse" spreadMethod="pad" x2="-260.698" y2="-197.98" x1="-325.35" y1="-86"><stop offset="0%" stop-color="#0da9ec" /><stop offset="65.2%" stop-color="#2190d6" /><stop offset="100%" stop-color="#3676c1" /></linearGradient><linearGradient id="i3" gradientUnits="userSpaceOnUse" spreadMethod="pad" x2="-275.149" y2="215.919" x1="-275.149" y1="105"><stop offset="0%" stop-color="#0da9ec" /><stop offset="77.9%" stop-color="#2190d6" /><stop offset="100%" stop-color="#3676c1" /></linearGradient><linearGradient id="i4" gradientUnits="userSpaceOnUse" spreadMethod="pad" x2="11.174" y2="-25.158" x1="3" y1="-11"><stop offset="0%" stop-color="#060606" /><stop offset="33.8%" stop-color="#1d1d1d" /><stop offset="100%" stop-color="#333333" /></linearGradient><linearGradient id="i5" gradientUnits="userSpaceOnUse" spreadMethod="pad" x2="20.998" y2="37.238" x1="-6" y1="84"><stop offset="0%" stop-color="#060606" /><stop offset="53.2%" stop-color="#1d1d1d" /><stop offset="100%" stop-color="#333333" /></linearGradient><linearGradient id="i6" gradientUnits="userSpaceOnUse" spreadMethod="pad" x2="20.135" y2="-6.268" x1="-6" y1="39"><stop offset="0%" stop-color="#060606" /><stop offset="52.8%" stop-color="#1d1d1d" /><stop offset="100%" stop-color="#333333" /></linearGradient></defs><g id="i7"><g transform="translate(258.365,244.368)"><g transform="scale(1,1)"><animateTransform repeatCount="indefinite" type="scale" attributeName="transform" dur="4s" begin="0s" calcMode="spline" values="1 1; 0.72 1; 1 1; 0.72 1; 1 1; 0.72 1; 1 1; 0.72 1; 1 1; 0.72 1; 1 1; 0.72 1; 1 1; 0.72 1; 1 1; 0.72 1" keyTimes="0; 0.083334; 0.166666; 0.25; 0.333334; 0.416666; 0.5; 0.583334; 0.666666; 0.75; 0.833334; 0.916666; 1; 1; 1; 1" keySplines="0.333 0 0.667 1; 0.333 0 0.667 1; 0.333 0 0.667 1; 0.333 0 0.667 1; 0.333 0 0.667 1; 0.333 0 0.667 1; 0.333 0 0.667 1; 0.333 0 0.667 1; 0.333 0 0.667 1; 0.333 0 0.667 1; 0.333 0 0.667 1; 0.333 0 0.667 1; 0.333 0 0.667 1; 0.333 0 0.667 1; 0.333 0 0.667 1" fill="freeze" /><g transform="translate(-8.365,5.632)"><g id="i8"><g id="i9"><path fill="url(#i0)" d="M98.475,-97.497C104.873,-97.446,115.599,-95.613,121.817,-84.89C121.817,-84.89,144.3,-81.814,140.014,-58.753C140.014,-58.753,162.969,-53.685,154.349,-29.687C154.349,-29.687,165.459,-15.376,145.062,0.716C109.666,5.144,16.442,-0.248,16.442,-0.248C16.442,-0.248,10.94,-5.882,10.94,-5.882C10.94,-5.882,45.088,-58.779,98.475,-97.497Z" /></g><g id="i10"><g id="i11"><path fill="#3a4280" d="M11.492,-5.323C11.492,-5.323,10.389,-6.443,10.389,-6.443C11.192,-7.233,91.806,-85.803,188.365,-112.382C188.365,-112.382,188.782,-110.866,188.782,-110.866C92.626,-84.397,12.293,-6.109,11.492,-5.323Z" /></g><g id="i8"><path fill="#3a4280" d="M13.787,-2.933C13.787,-2.933,12.917,-4.246,12.917,-4.246C92.346,-56.778,168.712,-67.658,169.474,-67.761C169.474,-67.761,169.685,-66.201,169.685,-66.201C168.927,-66.098,92.9,-55.255,13.787,-2.933Z" /></g><g id="i12"><path fill="#3a4280" d="M16.781,0.464C16.781,0.464,16.105,-0.958,16.105,-0.958C91.817,-37.011,173.49,-30.545,174.306,-30.472C174.306,-30.472,174.173,-28.904,174.173,-28.904C173.361,-28.964,92.099,-35.401,16.781,0.464Z" /></g><g id="i13"><path fill="#3a4280" d="M135.855,-28.827C98.68,-44.856,73.016,-35.627,72.764,-35.537C72.764,-35.537,72.121,-36.969,72.121,-36.969C95.117,-49.102,104.783,-60.183,108.845,-67.339C113.206,-75.025,112.185,-79.921,112.174,-79.971C112.174,-79.971,113.708,-80.324,113.708,-80.324C113.895,-79.514,117.657,-61.031,78.232,-38.526C88.078,-40.389,109.275,-42,136.479,-30.274C136.479,-30.274,135.855,-28.827,135.855,-28.827Z" /></g><g id="i14"><path fill="#3a4280" d="M53.6,2.077C53.6,2.077,52.713,0.776,52.713,0.776C95.418,-28.413,150.88,-1.231,151.436,-0.951C151.436,-0.951,148.618,-0.511,148.618,-0.511C148.073,-0.784,95.536,-26.587,53.6,2.077Z" /></g></g><g id="i15"><path fill="#3a4280" d="M181.762,-66.714C199.544,-91.817,174.306,-108.119,174.306,-108.119C177.385,-121.905,158.018,-128.662,157.398,-128.874C138.328,-122.388,120.514,-112.725,104.326,-101.61C104.615,-101.652,123.951,-104.414,125.771,-89.548C125.771,-89.548,149.712,-87.32,143.905,-61.644C143.905,-61.644,169.811,-55.606,161.003,-30.952C161.003,-30.952,170.992,-17.236,157.399,-2.041C171.405,-7.155,180.793,-18.829,188.782,-36.339C197.496,-57.739,181.762,-66.714,181.762,-66.714Z" /></g><g id="i16"><path stroke-miterlimit="10" stroke-width="1.654" stroke="#434e8c" d="M123.585,-85.576C123.585,-85.576,158.887,-104.642,185.737,-111.504" /></g><g id="i17"><path stroke-miterlimit="10" stroke-width="1.654" stroke="#434e8c" d="M143.905,-61.644C143.905,-61.644,173.334,-68.164,192.66,-67.761" /></g><g id="i18"><path stroke-miterlimit="10" stroke-width="1.654" stroke="#434e8c" d="M158.555,-30.126C158.555,-30.126,176.043,-30.085,185.062,-28.827" /></g><g id="i19"><g id="i13"><path fill="#3a4280" d="M183.696,-135.528C174.702,-134.051,165.928,-131.775,157.398,-128.874C158.018,-128.662,177.385,-121.905,174.306,-108.119C174.306,-108.119,199.544,-91.817,181.762,-66.714C181.762,-66.714,197.496,-57.739,188.782,-36.339C194.791,-49.509,200.01,-65.974,205.8,-85.457C210.98,-102.889,210.492,-114.368,207.707,-121.923C204.124,-131.644,193.919,-137.207,183.696,-135.528Z" /></g><g id="i14"><path fill="#2e376d" d="M183.738,-135.535C174.73,-134.058,165.941,-131.779,157.398,-128.874C158.018,-128.662,176.714,-128.873,174.306,-108.119C174.306,-108.119,199.809,-94.526,181.762,-66.714C181.762,-66.714,197.496,-57.739,188.782,-36.339C194.791,-49.509,200.01,-65.974,205.8,-85.457C211.275,-103.88,210.418,-115.653,207.21,-123.174C203.345,-132.235,193.46,-137.128,183.738,-135.535Z" /></g></g><g id="i11"><path fill="#2e376d" d="M161.003,-30.952C169.811,-55.606,145.943,-62.081,145.943,-62.081C151.75,-87.757,125.771,-89.548,125.771,-89.548C123.951,-104.414,104.615,-101.652,104.326,-101.61C102.355,-100.256,100.397,-98.891,98.475,-97.497C104.874,-97.446,115.599,-95.613,121.817,-84.89C121.817,-84.89,142.98,-82.406,138.694,-59.345C138.694,-59.345,162.969,-53.686,154.349,-29.688C154.349,-29.688,165.459,-15.376,145.062,0.716C147.31,0.435,149.34,0.116,151.082,-0.248C153.289,-0.709,155.391,-1.308,157.399,-2.041C170.992,-17.236,161.003,-30.952,161.003,-30.952Z" /></g><g id="i8"><path fill="#6978b5" d="M147.78,-112.64C147.78,-110.5,146.045,-108.765,143.905,-108.765C141.765,-108.765,140.029,-110.5,140.029,-112.64C140.029,-114.78,141.765,-116.516,143.905,-116.516C146.045,-116.516,147.78,-114.78,147.78,-112.64Z" /></g><g id="i12"><path fill="#6978b5" d="M178.182,-45.885C178.182,-43.745,176.446,-42.01,174.306,-42.01C172.166,-42.01,170.431,-43.745,170.431,-45.885C170.431,-48.025,172.166,-49.76,174.306,-49.76C176.446,-49.76,178.182,-48.025,178.182,-45.885Z" /></g><g id="i13"><path fill="#6978b5" d="M172.14,-17.029C171.196,-16.085,169.665,-16.085,168.721,-17.029C167.777,-17.973,167.777,-19.504,168.721,-20.448C169.665,-21.392,171.196,-21.392,172.14,-20.448C173.084,-19.504,173.084,-17.973,172.14,-17.029Z" /></g><g id="i14"><path fill="#6978b5" d="M170.112,-85.576C170.112,-82.499,167.617,-80.004,164.54,-80.004C161.463,-80.004,158.968,-82.499,158.968,-85.576C158.968,-88.653,161.463,-91.148,164.54,-91.148C167.617,-91.148,170.112,-88.653,170.112,-85.576Z" /></g></g><g id="i12"><path fill="#dbdbdb" d="M131.508,2.077C131.508,2.077,78.323,-26.422,14.338,-1.438C14.338,-1.438,12.917,5.839,12.917,5.839C12.917,5.839,80.01,5.839,80.01,5.839C80.01,5.839,97.265,2.475,97.265,2.475C97.265,2.475,131.508,2.077,131.508,2.077Z" /></g><g id="i13"><g id="i12"><path fill="url(#i1)" d="M138.445,64.143C138.445,64.143,140.492,94.596,102.119,95.725C102.119,95.725,94.237,110.86,64.692,102.916C64.692,102.916,53.43,109.645,40.526,100.992C40.526,100.992,33.809,102.434,27.896,96.826C5.356,61.561,10.94,16.276,10.94,16.276C10.94,16.276,16.442,-0.248,16.442,-0.248C16.442,-0.248,63.533,-21.633,141.181,21.814C141.181,21.814,147.555,25.811,153.075,33.046C154.747,39.781,154.7,52.119,138.445,64.143Z" /></g><g id="i13" transform="matrix(1,0,0,1,0,0)" opacity="0.32"><path fill="#050505" d="M151.082,80.895C123.984,116.852,67.703,143.455,35.914,107.485C32.908,104.084,30.25,100.509,27.896,96.826C33.809,102.434,40.526,100.992,40.526,100.992C53.43,109.645,64.692,102.916,64.692,102.916C94.237,110.86,102.119,95.725,102.119,95.725C140.492,94.596,138.445,64.143,138.445,64.143C154.7,52.119,154.747,39.781,153.075,33.046C160.851,43.238,166.93,59.866,151.082,80.895Z" /></g><g id="i14"><path fill="#3a4280" d="M151.082,80.895C123.984,116.852,67.703,143.455,35.914,107.485C32.908,104.084,30.25,100.509,27.896,96.826C33.809,102.434,40.526,100.992,40.526,100.992C53.43,109.645,64.692,102.916,64.692,102.916C94.237,110.86,102.119,95.725,102.119,95.725C140.492,94.596,138.445,64.143,138.445,64.143C154.7,52.119,154.747,39.781,153.075,33.046C160.851,43.238,166.93,59.866,151.082,80.895Z" /></g></g><g id="i14"><g id="i19"><path fill="#3a4280" d="M67.015,118.084C54.638,46.313,15.939,14.025,13.452,13.689C13.458,13.689,13.542,13.698,13.673,13.644C13.673,13.644,13.032,12.205,13.032,12.205C13.454,12.02,13.958,12.117,14.72,12.524C20.827,15.78,56.706,49.033,68.565,117.817C68.565,117.817,67.015,118.084,67.015,118.084Z" /></g><g id="i11"><path fill="#3a4280" d="M105.862,110.676C78.365,24.9,16.88,9.515,16.262,9.371C16.262,9.371,16.622,7.837,16.622,7.837C17.249,7.984,79.578,23.526,107.361,110.193C107.361,110.193,105.862,110.676,105.862,110.676Z" /></g><g id="i8"><path fill="#3a4280" d="M150.51,76.742C149.851,76.042,83.881,6.683,8.365,2.212C8.365,2.212,8.46,0.64,8.46,0.64C84.607,5.15,150.994,74.962,151.655,75.666C151.655,75.666,150.51,76.742,150.51,76.742Z" /></g><g id="i12"><path fill="#3a4280" d="M39.785,110.458C38.861,79.882,52.174,71.294,52.743,70.943C52.743,70.943,53.572,72.28,53.572,72.28C53.441,72.362,40.465,80.839,41.357,110.411C41.357,110.411,39.785,110.458,39.785,110.458Z" /></g><g id="i13"><path fill="#3a4280" d="M42.841,86.909C42.514,86.323,34.853,72.437,36.533,57.319C38.15,42.748,31.449,31.854,31.38,31.744C31.38,31.744,32.713,30.908,32.713,30.908C33.004,31.367,39.777,42.355,38.097,57.492C36.473,72.112,44.138,86,44.215,86.138C44.215,86.138,42.841,86.909,42.841,86.909Z" /></g><g id="i14"><path fill="#3a4280" d="M90.744,75.144C76.899,43.442,81.602,25.038,81.809,24.271C81.809,24.271,81.939,23.797,81.939,23.797C81.939,23.797,82.421,23.703,82.421,23.703C82.793,23.63,120.052,16.702,154.703,34.1C154.703,34.1,153.996,35.508,153.996,35.508C122.018,19.451,87.76,24.405,83.222,25.161C82.589,28.26,79.798,46.149,92.187,74.516C92.187,74.516,90.744,75.144,90.744,75.144Z" /></g></g></g></g></g></g><g id="i20"><g transform="translate(256.615,244.368)"><g transform="scale(1,1)"><animateTransform repeatCount="indefinite" type="scale" attributeName="transform" dur="4s" begin="0s" calcMode="spline" values="1 1; 0.74 1; 1 1; 0.74 1; 1 1; 0.74 1; 1 1; 0.74 1; 1 1; 0.74 1; 1 1; 0.74 1; 1 1; 0.74 1; 1 1; 0.74 1" keyTimes="0; 0.083334; 0.166666; 0.25; 0.333334; 0.416666; 0.5; 0.583334; 0.666666; 0.75; 0.833334; 0.916666; 1; 1; 1; 1" keySplines="0.333 0 0.667 1; 0.333 0 0.667 1; 0.333 0 0.667 1; 0.333 0 0.667 1; 0.333 0 0.667 1; 0.333 0 0.667 1; 0.333 0 0.667 1; 0.333 0 0.667 1; 0.333 0 0.667 1; 0.333 0 0.667 1; 0.333 0 0.667 1; 0.333 0 0.667 1; 0.333 0 0.667 1; 0.333 0 0.667 1; 0.333 0 0.667 1" fill="freeze" /><g transform="translate(-6.615,5.632)"><g id="i8"><g id="i9"><path fill="url(#i2)" d="M-83.495,-97.497C-89.894,-97.446,-100.619,-95.613,-106.837,-84.89C-106.837,-84.89,-129.32,-81.814,-125.034,-58.753C-125.034,-58.753,-147.989,-53.685,-139.369,-29.687C-139.369,-29.687,-150.479,-15.376,-130.082,0.716C-94.686,5.144,-1.463,-0.248,-1.463,-0.248C-1.463,-0.248,4.04,-5.882,4.04,-5.882C4.04,-5.882,-30.108,-58.779,-83.495,-97.497Z" /></g><g id="i10"><g id="i11"><path fill="#3a4280" d="M3.488,-5.323C3.488,-5.323,4.59,-6.443,4.59,-6.443C3.787,-7.233,-76.826,-85.803,-173.385,-112.382C-173.385,-112.382,-173.803,-110.866,-173.803,-110.866C-77.647,-84.397,2.687,-6.109,3.488,-5.323Z" /></g><g id="i8"><path fill="#3a4280" d="M1.192,-2.933C1.192,-2.933,2.062,-4.246,2.062,-4.246C-77.367,-56.778,-153.732,-67.658,-154.494,-67.761C-154.494,-67.761,-154.705,-66.201,-154.705,-66.201C-153.947,-66.098,-77.921,-55.255,1.192,-2.933Z" /></g><g id="i12"><path fill="#3a4280" d="M-1.801,0.464C-1.801,0.464,-1.125,-0.958,-1.125,-0.958C-76.837,-37.011,-158.511,-30.545,-159.327,-30.472C-159.327,-30.472,-159.193,-28.904,-159.193,-28.904C-158.381,-28.964,-77.119,-35.401,-1.801,0.464Z" /></g><g id="i13"><path fill="#3a4280" d="M-120.875,-28.827C-83.7,-44.856,-58.037,-35.627,-57.785,-35.537C-57.785,-35.537,-57.141,-36.969,-57.141,-36.969C-80.137,-49.102,-89.804,-60.183,-93.865,-67.339C-98.226,-75.025,-97.206,-79.921,-97.195,-79.971C-97.195,-79.971,-98.728,-80.324,-98.728,-80.324C-98.915,-79.514,-102.678,-61.031,-63.253,-38.526C-73.099,-40.389,-94.296,-42,-121.5,-30.274C-121.5,-30.274,-120.875,-28.827,-120.875,-28.827Z" /></g><g id="i14"><path fill="#3a4280" d="M-38.62,2.077C-38.62,2.077,-37.733,0.776,-37.733,0.776C-80.438,-28.413,-135.9,-1.231,-136.456,-0.951C-136.456,-0.951,-133.638,-0.511,-133.638,-0.511C-133.093,-0.784,-80.556,-26.587,-38.62,2.077Z" /></g></g><g id="i15"><path fill="#3a4280" d="M-166.782,-66.714C-184.564,-91.817,-159.327,-108.119,-159.327,-108.119C-162.406,-121.905,-143.039,-128.662,-142.419,-128.874C-123.349,-122.388,-105.535,-112.725,-89.347,-101.61C-89.635,-101.652,-108.971,-104.414,-110.791,-89.548C-110.791,-89.548,-134.733,-87.32,-128.925,-61.644C-128.925,-61.644,-154.831,-55.606,-146.023,-30.952C-146.023,-30.952,-156.012,-17.236,-142.419,-2.041C-156.425,-7.155,-165.814,-18.829,-173.803,-36.339C-182.517,-57.739,-166.782,-66.714,-166.782,-66.714Z" /></g><g id="i16"><path stroke-miterlimit="10" stroke-width="1.654" stroke="#434e8c" d="M-108.605,-85.576C-108.605,-85.576,-143.907,-104.642,-170.757,-111.504" /></g><g id="i17"><path stroke-miterlimit="10" stroke-width="1.654" stroke="#434e8c" d="M-128.925,-61.644C-128.925,-61.644,-158.354,-68.164,-177.68,-67.761" /></g><g id="i18"><path stroke-miterlimit="10" stroke-width="1.654" stroke="#434e8c" d="M-143.575,-30.126C-143.575,-30.126,-161.063,-30.085,-170.082,-28.827" /></g><g id="i19"><g id="i13"><path fill="#3a4280" d="M-168.717,-135.528C-159.723,-134.051,-150.949,-131.775,-142.419,-128.874C-143.039,-128.662,-162.406,-121.905,-159.327,-108.119C-159.327,-108.119,-184.564,-91.817,-166.782,-66.714C-166.782,-66.714,-182.517,-57.739,-173.803,-36.339C-179.812,-49.509,-185.031,-65.974,-190.821,-85.457C-196.001,-102.889,-195.512,-114.368,-192.727,-121.923C-189.144,-131.644,-178.94,-137.207,-168.717,-135.528Z" /></g><g id="i14"><path fill="#2e376d" d="M-168.759,-135.535C-159.75,-134.058,-150.962,-131.779,-142.419,-128.874C-143.039,-128.662,-161.735,-128.873,-159.327,-108.119C-159.327,-108.119,-184.829,-94.526,-166.782,-66.714C-166.782,-66.714,-182.517,-57.739,-173.803,-36.339C-179.812,-49.509,-185.031,-65.974,-190.821,-85.457C-196.296,-103.88,-195.439,-115.653,-192.231,-123.174C-188.365,-132.235,-178.481,-137.128,-168.759,-135.535Z" /></g></g><g id="i11"><path fill="#2e376d" d="M-146.023,-30.952C-154.831,-55.606,-130.963,-62.081,-130.963,-62.081C-136.771,-87.757,-110.791,-89.548,-110.791,-89.548C-108.971,-104.414,-89.635,-101.652,-89.347,-101.61C-87.376,-100.256,-85.417,-98.891,-83.495,-97.497C-89.894,-97.446,-100.619,-95.613,-106.837,-84.89C-106.837,-84.89,-128,-82.406,-123.714,-59.345C-123.714,-59.345,-147.989,-53.686,-139.369,-29.688C-139.369,-29.688,-150.479,-15.376,-130.082,0.716C-132.33,0.435,-134.361,0.116,-136.103,-0.248C-138.31,-0.709,-140.411,-1.308,-142.419,-2.041C-156.012,-17.236,-146.023,-30.952,-146.023,-30.952Z" /></g><g id="i8"><path fill="#6978b5" d="M-132.8,-112.64C-132.8,-110.5,-131.065,-108.765,-128.925,-108.765C-126.785,-108.765,-125.049,-110.5,-125.049,-112.64C-125.049,-114.78,-126.785,-116.516,-128.925,-116.516C-131.065,-116.516,-132.8,-114.78,-132.8,-112.64Z" /></g><g id="i12"><path fill="#6978b5" d="M-163.202,-45.885C-163.202,-43.745,-161.467,-42.01,-159.327,-42.01C-157.187,-42.01,-155.451,-43.745,-155.451,-45.885C-155.451,-48.025,-157.187,-49.76,-159.327,-49.76C-161.467,-49.76,-163.202,-48.025,-163.202,-45.885Z" /></g><g id="i13"><path fill="#6978b5" d="M-157.161,-17.029C-156.217,-16.085,-154.686,-16.085,-153.742,-17.029C-152.798,-17.973,-152.798,-19.504,-153.742,-20.448C-154.686,-21.392,-156.217,-21.392,-157.161,-20.448C-158.105,-19.504,-158.105,-17.973,-157.161,-17.029Z" /></g><g id="i14"><path fill="#6978b5" d="M-155.132,-85.576C-155.132,-82.499,-152.637,-80.004,-149.56,-80.004C-146.483,-80.004,-143.989,-82.499,-143.989,-85.576C-143.989,-88.653,-146.483,-91.148,-149.56,-91.148C-152.637,-91.148,-155.132,-88.653,-155.132,-85.576Z" /></g></g><g id="i12"><path fill="#dbdbdb" d="M-116.528,2.077C-116.528,2.077,-63.343,-26.422,0.642,-1.438C0.642,-1.438,2.062,5.839,2.062,5.839C2.062,5.839,-65.03,5.839,-65.03,5.839C-65.03,5.839,-82.285,2.475,-82.285,2.475C-82.285,2.475,-116.528,2.077,-116.528,2.077Z" /></g><g id="i13"><g id="i12"><path fill="url(#i3)" d="M-123.465,64.143C-123.465,64.143,-125.513,94.596,-87.14,95.725C-87.14,95.725,-79.257,110.86,-49.712,102.916C-49.712,102.916,-38.451,109.645,-25.547,100.992C-25.547,100.992,-18.829,102.434,-12.916,96.826C9.624,61.561,4.04,16.276,4.04,16.276C4.04,16.276,-1.463,-0.248,-1.463,-0.248C-1.463,-0.248,-48.554,-21.633,-126.201,21.814C-126.201,21.814,-132.576,25.811,-138.096,33.046C-139.768,39.781,-139.719,52.119,-123.465,64.143Z" /></g><g id="i13" transform="matrix(1,0,0,1,0,0)" opacity="0.32"><path fill="#050505" d="M-136.103,80.895C-109.005,116.852,-52.723,143.455,-20.934,107.485C-17.928,104.084,-15.27,100.509,-12.916,96.826C-18.829,102.434,-25.547,100.992,-25.547,100.992C-38.451,109.645,-49.712,102.916,-49.712,102.916C-79.257,110.86,-87.14,95.725,-87.14,95.725C-125.513,94.596,-123.465,64.143,-123.465,64.143C-139.719,52.119,-139.768,39.781,-138.096,33.046C-145.872,43.238,-151.951,59.866,-136.103,80.895Z" /></g><g id="i14"><path fill="#3a4280" d="M-136.103,80.895C-109.005,116.852,-52.723,143.455,-20.934,107.485C-17.928,104.084,-15.27,100.509,-12.916,96.826C-18.829,102.434,-25.547,100.992,-25.547,100.992C-38.451,109.645,-49.712,102.916,-49.712,102.916C-79.257,110.86,-87.14,95.725,-87.14,95.725C-125.513,94.596,-123.465,64.143,-123.465,64.143C-139.719,52.119,-139.768,39.781,-138.096,33.046C-145.872,43.238,-151.951,59.866,-136.103,80.895Z" /></g></g><g id="i14"><g id="i19"><path fill="#3a4280" d="M-52.035,118.084C-39.659,46.313,-0.959,14.025,1.528,13.689C1.522,13.689,1.437,13.698,1.306,13.644C1.306,13.644,1.948,12.205,1.948,12.205C1.526,12.02,1.022,12.117,0.26,12.524C-5.847,15.78,-41.725,49.033,-53.585,117.817C-53.585,117.817,-52.035,118.084,-52.035,118.084Z" /></g><g id="i11"><path fill="#3a4280" d="M-90.883,110.676C-63.386,24.9,-1.9,9.515,-1.282,9.371C-1.282,9.371,-1.642,7.837,-1.642,7.837C-2.269,7.984,-64.599,23.526,-92.382,110.193C-92.382,110.193,-90.883,110.676,-90.883,110.676Z" /></g><g id="i8"><path fill="#3a4280" d="M-135.53,76.742C-134.871,76.042,-68.901,6.683,6.615,2.212C6.615,2.212,6.52,0.64,6.52,0.64C-69.627,5.15,-136.015,74.962,-136.676,75.666C-136.676,75.666,-135.53,76.742,-135.53,76.742Z" /></g><g id="i12"><path fill="#3a4280" d="M-24.805,110.458C-23.881,79.882,-37.195,71.294,-37.763,70.943C-37.763,70.943,-38.592,72.28,-38.592,72.28C-38.461,72.362,-25.486,80.839,-26.378,110.411C-26.378,110.411,-24.805,110.458,-24.805,110.458Z" /></g><g id="i13"><path fill="#3a4280" d="M-27.861,86.909C-27.534,86.323,-19.874,72.437,-21.554,57.319C-23.171,42.748,-16.469,31.854,-16.4,31.744C-16.4,31.744,-17.733,30.908,-17.733,30.908C-18.024,31.367,-24.797,42.355,-23.117,57.492C-21.493,72.112,-29.158,86,-29.235,86.138C-29.235,86.138,-27.861,86.909,-27.861,86.909Z" /></g><g id="i14"><path fill="#3a4280" d="M-75.765,75.144C-61.92,43.442,-66.623,25.038,-66.83,24.271C-66.83,24.271,-66.959,23.797,-66.959,23.797C-66.959,23.797,-67.441,23.703,-67.441,23.703C-67.814,23.63,-105.072,16.702,-139.723,34.1C-139.723,34.1,-139.017,35.508,-139.017,35.508C-107.039,19.451,-72.779,24.405,-68.242,25.161C-67.609,28.26,-64.819,46.149,-77.208,74.516C-77.208,74.516,-75.765,75.144,-75.765,75.144Z" /></g></g></g></g></g></g><g id="i21"><g transform="translate(260.469,228.669)"><g transform="rotate(0)"><animateTransform repeatCount="indefinite" type="rotate" attributeName="transform" dur="4s" begin="0s" calcMode="spline" values="0; -5; 0; -5; -5; 0; -5; 0; -5; 0; -5; 0; -5; 0" keyTimes="0; 0.083333; 0.166667; 0.25; 0.583333; 0.666667; 0.75; 0.833333; 0.916667; 1; 1; 1; 1; 1" keySplines="0.333 0 0.667 1; 0.333 0 0.667 1; 0.333 0 0.667 1; 0.333 0 0.667 1; 0.333 0 0.667 1; 0.333 0 0.667 1; 0.333 0 0.667 1; 0.333 0 0.667 1; 0.333 0 0.667 1; 0.333 0 0.667 1; 0.333 0 0.667 1; 0.333 0 0.667 1; 0.333 0 0.667 1" fill="freeze" /><g transform="scale(1,1) translate(-10.469,21.331)"><g id="i13"><path stroke-linejoin="round" stroke-linecap="round" stroke-width="2.525" stroke="#050505" d="M10.469,-21.331C10.469,-21.331,32.421,-86.345,52.685,-112.097" /></g><g id="i14"><path fill="#050505" d="M50.315,-110.986C50.315,-110.986,55.233,-120.199,62.103,-119.73C68.973,-119.262,64.211,-113.25,59.995,-112.86C55.779,-112.47,53.125,-110.596,50.705,-107.317C50.705,-107.317,50.315,-110.986,50.315,-110.986Z" /></g></g></g></g></g><g id="i22"><g transform="translate(254.872,228.669)"><g transform="rotate(0)"><animateTransform repeatCount="indefinite" type="rotate" attributeName="transform" dur="4s" begin="0s" calcMode="spline" values="0; 5; 0; 5; 5; 0; 5; 0; 5; 0; 5; 0; 5; 0" keyTimes="0; 0.083333; 0.166667; 0.25; 0.583333; 0.666667; 0.75; 0.833333; 0.916667; 1; 1; 1; 1; 1" keySplines="0.333 0 0.667 1; 0.333 0 0.667 1; 0.333 0 0.667 1; 0.333 0 0.667 1; 0.333 0 0.667 1; 0.333 0 0.667 1; 0.333 0 0.667 1; 0.333 0 0.667 1; 0.333 0 0.667 1; 0.333 0 0.667 1; 0.333 0 0.667 1; 0.333 0 0.667 1; 0.333 0 0.667 1" fill="freeze" /><g transform="scale(1,1) translate(-4.872,21.331)"><g id="i13"><path stroke-linejoin="round" stroke-linecap="round" stroke-width="2.525" stroke="#050505" d="M4.872,-21.331C4.872,-21.331,-17.08,-86.345,-37.344,-112.097" /></g><g id="i14"><path fill="#050505" d="M-34.974,-110.986C-34.974,-110.986,-39.892,-120.199,-46.762,-119.73C-53.632,-119.262,-48.87,-113.25,-44.654,-112.86C-40.438,-112.47,-37.784,-110.596,-35.364,-107.317C-35.364,-107.317,-34.974,-110.986,-34.974,-110.986Z" /></g></g></g></g></g><g transform="matrix(1,0,0,1,250,250)" id="i23"><g id="i12"><path fill="url(#i4)" d="M15.716,-17.208C15.716,-12.694,12.057,-9.035,7.543,-9.035C3.029,-9.035,-0.63,-12.694,-0.63,-17.208C-0.63,-21.722,3.029,-25.381,7.543,-25.381C12.057,-25.381,15.716,-21.722,15.716,-17.208Z" /></g><g id="i13"><path fill="url(#i5)" d="M7.67,90.829C7.67,90.829,7.67,90.829,7.67,90.829C2.17,90.829,-2.196,86.203,-1.879,80.712C-1.879,80.712,3.107,32.597,3.107,32.597C3.107,32.597,12.234,32.597,12.234,32.597C12.234,32.597,17.22,80.712,17.22,80.712C17.538,86.203,13.17,90.829,7.67,90.829Z" /></g><g id="i14"><path fill="url(#i6)" d="M13.419,-8.438C11.015,-12.994,4.475,-12.965,2.02,-8.436C-1.002,-2.86,-4.099,6.085,-3.695,19C-3.335,30.52,-0.832,38.094,1.72,42.886C4.121,47.394,10.672,47.471,13.071,42.961C15.868,37.702,18.655,29.18,18.526,16.191C18.407,4.163,15.978,-3.589,13.419,-8.438Z" /></g></g></svg>